<mxfile host="app.diagrams.net" modified="2020-07-01T14:09:47.393Z" agent="5.0 (Windows NT 10.0; Win64; x64) AppleWebKit/537.36 (KHTML, like Gecko) Chrome/83.0.4103.97 Safari/537.36" etag="IhmFF_HQ_KPE5XKvG4WD" version="13.3.5" type="github">
  <diagram id="ObFMUwsZoE6x6Ov3aSio" name="Page-1">
    <mxGraphModel dx="1221" dy="682" grid="1" gridSize="10" guides="1" tooltips="1" connect="1" arrows="1" fold="1" page="1" pageScale="1" pageWidth="850" pageHeight="1100" math="0" shadow="0">
      <root>
        <mxCell id="0" />
        <mxCell id="1" parent="0" />
        <mxCell id="63LmWP-ijqn6lB4bOJ2F-1" value="" style="rounded=0;whiteSpace=wrap;html=1;" vertex="1" parent="1">
          <mxGeometry x="150" y="260" width="520" height="240" as="geometry" />
        </mxCell>
        <mxCell id="63LmWP-ijqn6lB4bOJ2F-2" value="Alt" style="rounded=0;whiteSpace=wrap;html=1;" vertex="1" parent="1">
          <mxGeometry x="150" y="260" width="50" height="30" as="geometry" />
        </mxCell>
        <mxCell id="63LmWP-ijqn6lB4bOJ2F-3" value="User" style="shape=umlActor;verticalLabelPosition=bottom;labelBackgroundColor=#ffffff;verticalAlign=top;html=1;outlineConnect=0;" vertex="1" parent="1">
          <mxGeometry x="180" y="70" width="30" height="60" as="geometry" />
        </mxCell>
        <mxCell id="63LmWP-ijqn6lB4bOJ2F-4" value="GUI" style="shape=umlActor;verticalLabelPosition=bottom;labelBackgroundColor=#ffffff;verticalAlign=top;html=1;outlineConnect=0;" vertex="1" parent="1">
          <mxGeometry x="620" y="70" width="30" height="60" as="geometry" />
        </mxCell>
        <mxCell id="63LmWP-ijqn6lB4bOJ2F-5" value="" style="endArrow=none;dashed=1;html=1;exitX=0.5;exitY=0;exitDx=0;exitDy=0;" edge="1" parent="1" source="63LmWP-ijqn6lB4bOJ2F-15">
          <mxGeometry width="50" height="50" relative="1" as="geometry">
            <mxPoint x="430" y="340" as="sourcePoint" />
            <mxPoint x="345" y="150" as="targetPoint" />
          </mxGeometry>
        </mxCell>
        <mxCell id="63LmWP-ijqn6lB4bOJ2F-6" value="Login window" style="rounded=0;whiteSpace=wrap;html=1;" vertex="1" parent="1">
          <mxGeometry x="302.5" y="90" width="85" height="60" as="geometry" />
        </mxCell>
        <mxCell id="63LmWP-ijqn6lB4bOJ2F-8" value="login()" style="text;html=1;strokeColor=none;fillColor=none;align=center;verticalAlign=middle;whiteSpace=wrap;rounded=0;" vertex="1" parent="1">
          <mxGeometry x="250" y="280" width="40" height="20" as="geometry" />
        </mxCell>
        <mxCell id="63LmWP-ijqn6lB4bOJ2F-9" value="" style="endArrow=none;html=1;startArrow=classic;startFill=1;dashed=1;endFill=0;" edge="1" parent="1">
          <mxGeometry width="50" height="50" relative="1" as="geometry">
            <mxPoint x="350" y="320" as="sourcePoint" />
            <mxPoint x="630" y="320" as="targetPoint" />
          </mxGeometry>
        </mxCell>
        <mxCell id="63LmWP-ijqn6lB4bOJ2F-10" value="code for login window" style="text;html=1;strokeColor=none;fillColor=none;align=center;verticalAlign=middle;whiteSpace=wrap;rounded=0;" vertex="1" parent="1">
          <mxGeometry x="425" y="300" width="135" height="20" as="geometry" />
        </mxCell>
        <mxCell id="63LmWP-ijqn6lB4bOJ2F-11" value="" style="rounded=0;whiteSpace=wrap;html=1;" vertex="1" parent="1">
          <mxGeometry x="200" y="410" width="430" height="80" as="geometry" />
        </mxCell>
        <mxCell id="63LmWP-ijqn6lB4bOJ2F-12" value="" style="rounded=0;whiteSpace=wrap;html=1;" vertex="1" parent="1">
          <mxGeometry x="630" y="160" width="10" height="390" as="geometry" />
        </mxCell>
        <mxCell id="63LmWP-ijqn6lB4bOJ2F-15" value="" style="rounded=0;whiteSpace=wrap;html=1;" vertex="1" parent="1">
          <mxGeometry x="340" y="310" width="10" height="180" as="geometry" />
        </mxCell>
        <mxCell id="63LmWP-ijqn6lB4bOJ2F-16" value="" style="rounded=0;whiteSpace=wrap;html=1;" vertex="1" parent="1">
          <mxGeometry x="190" y="160" width="10" height="390" as="geometry" />
        </mxCell>
        <mxCell id="63LmWP-ijqn6lB4bOJ2F-18" value="Alt" style="rounded=0;whiteSpace=wrap;html=1;" vertex="1" parent="1">
          <mxGeometry x="200" y="410" width="30" height="20" as="geometry" />
        </mxCell>
        <mxCell id="63LmWP-ijqn6lB4bOJ2F-24" value="[checks remember me]" style="text;html=1;strokeColor=none;fillColor=none;align=center;verticalAlign=middle;whiteSpace=wrap;rounded=0;" vertex="1" parent="1">
          <mxGeometry x="212.5" y="420" width="90" height="20" as="geometry" />
        </mxCell>
        <mxCell id="63LmWP-ijqn6lB4bOJ2F-25" value="[doesn&#39;t check remember me]" style="text;html=1;strokeColor=none;fillColor=none;align=center;verticalAlign=middle;whiteSpace=wrap;rounded=0;" vertex="1" parent="1">
          <mxGeometry x="190" y="460" width="100" height="20" as="geometry" />
        </mxCell>
        <mxCell id="63LmWP-ijqn6lB4bOJ2F-26" value="" style="endArrow=classic;html=1;" edge="1" parent="1">
          <mxGeometry width="50" height="50" relative="1" as="geometry">
            <mxPoint x="195" y="540" as="sourcePoint" />
            <mxPoint x="628" y="540" as="targetPoint" />
          </mxGeometry>
        </mxCell>
        <mxCell id="63LmWP-ijqn6lB4bOJ2F-27" value="logout()" style="text;html=1;strokeColor=none;fillColor=none;align=center;verticalAlign=middle;whiteSpace=wrap;rounded=0;" vertex="1" parent="1">
          <mxGeometry x="380" y="520" width="40" height="20" as="geometry" />
        </mxCell>
        <mxCell id="63LmWP-ijqn6lB4bOJ2F-30" value="" style="endArrow=classic;html=1;" edge="1" parent="1">
          <mxGeometry width="50" height="50" relative="1" as="geometry">
            <mxPoint x="195" y="300" as="sourcePoint" />
            <mxPoint x="625" y="300" as="targetPoint" />
          </mxGeometry>
        </mxCell>
        <mxCell id="63LmWP-ijqn6lB4bOJ2F-41" value="" style="endArrow=none;html=1;exitX=1.028;exitY=0.968;exitDx=0;exitDy=0;exitPerimeter=0;endFill=0;dashed=1;" edge="1" parent="1">
          <mxGeometry width="50" height="50" relative="1" as="geometry">
            <mxPoint x="199.99999999999997" y="460" as="sourcePoint" />
            <mxPoint x="627.72" y="459.15999999999985" as="targetPoint" />
          </mxGeometry>
        </mxCell>
        <mxCell id="63LmWP-ijqn6lB4bOJ2F-43" style="edgeStyle=orthogonalEdgeStyle;rounded=0;orthogonalLoop=1;jettySize=auto;html=1;exitX=0.5;exitY=1;exitDx=0;exitDy=0;dashed=1;startArrow=classic;startFill=1;endArrow=none;endFill=0;" edge="1" parent="1" source="63LmWP-ijqn6lB4bOJ2F-24" target="63LmWP-ijqn6lB4bOJ2F-24">
          <mxGeometry relative="1" as="geometry" />
        </mxCell>
        <mxCell id="63LmWP-ijqn6lB4bOJ2F-44" value="" style="endArrow=classic;html=1;" edge="1" parent="1">
          <mxGeometry width="50" height="50" relative="1" as="geometry">
            <mxPoint x="200.0000000000001" y="450" as="sourcePoint" />
            <mxPoint x="630" y="450" as="targetPoint" />
          </mxGeometry>
        </mxCell>
        <mxCell id="63LmWP-ijqn6lB4bOJ2F-45" value="" style="endArrow=classic;html=1;" edge="1" parent="1">
          <mxGeometry width="50" height="50" relative="1" as="geometry">
            <mxPoint x="200.0000000000001" y="480" as="sourcePoint" />
            <mxPoint x="630" y="480" as="targetPoint" />
          </mxGeometry>
        </mxCell>
        <mxCell id="63LmWP-ijqn6lB4bOJ2F-46" value="saves creds" style="text;html=1;strokeColor=none;fillColor=none;align=center;verticalAlign=middle;whiteSpace=wrap;rounded=0;" vertex="1" parent="1">
          <mxGeometry x="380" y="430" width="80" height="20" as="geometry" />
        </mxCell>
        <mxCell id="63LmWP-ijqn6lB4bOJ2F-47" value="" style="endArrow=none;html=1;dashed=1;startArrow=classic;startFill=1;endFill=0;" edge="1" parent="1">
          <mxGeometry width="50" height="50" relative="1" as="geometry">
            <mxPoint x="200.0000000000001" y="520" as="sourcePoint" />
            <mxPoint x="630" y="520" as="targetPoint" />
          </mxGeometry>
        </mxCell>
        <mxCell id="63LmWP-ijqn6lB4bOJ2F-49" value="brings to home page window" style="text;html=1;strokeColor=none;fillColor=none;align=center;verticalAlign=middle;whiteSpace=wrap;rounded=0;" vertex="1" parent="1">
          <mxGeometry x="312.5" y="500" width="175" height="20" as="geometry" />
        </mxCell>
        <mxCell id="63LmWP-ijqn6lB4bOJ2F-51" value="doesn&#39;t save creds" style="text;html=1;strokeColor=none;fillColor=none;align=center;verticalAlign=middle;whiteSpace=wrap;rounded=0;" vertex="1" parent="1">
          <mxGeometry x="362.5" y="460" width="105" height="20" as="geometry" />
        </mxCell>
        <mxCell id="63LmWP-ijqn6lB4bOJ2F-63" value="" style="rounded=0;whiteSpace=wrap;html=1;" vertex="1" parent="1">
          <mxGeometry x="200" y="320" width="140" height="80" as="geometry" />
        </mxCell>
        <mxCell id="63LmWP-ijqn6lB4bOJ2F-56" value="incorrect creds" style="text;html=1;strokeColor=none;fillColor=none;align=center;verticalAlign=middle;whiteSpace=wrap;rounded=0;" vertex="1" parent="1">
          <mxGeometry x="230" y="320" width="100" height="20" as="geometry" />
        </mxCell>
        <mxCell id="63LmWP-ijqn6lB4bOJ2F-54" value="" style="endArrow=classic;html=1;dashed=1;" edge="1" parent="1">
          <mxGeometry width="50" height="50" relative="1" as="geometry">
            <mxPoint x="337.5" y="344.9999999999999" as="sourcePoint" />
            <mxPoint x="197.5000000000001" y="345.14286876860115" as="targetPoint" />
          </mxGeometry>
        </mxCell>
        <mxCell id="63LmWP-ijqn6lB4bOJ2F-57" value="" style="endArrow=none;html=1;startArrow=classic;startFill=1;endFill=0;" edge="1" parent="1">
          <mxGeometry width="50" height="50" relative="1" as="geometry">
            <mxPoint x="342.5" y="359.9999999999999" as="sourcePoint" />
            <mxPoint x="203" y="360" as="targetPoint" />
          </mxGeometry>
        </mxCell>
        <mxCell id="63LmWP-ijqn6lB4bOJ2F-58" value="back to login" style="text;html=1;strokeColor=none;fillColor=none;align=center;verticalAlign=middle;whiteSpace=wrap;rounded=0;" vertex="1" parent="1">
          <mxGeometry x="222.5" y="345" width="100" height="20" as="geometry" />
        </mxCell>
        <mxCell id="63LmWP-ijqn6lB4bOJ2F-36" value="correct creds" style="text;html=1;strokeColor=none;fillColor=none;align=center;verticalAlign=middle;whiteSpace=wrap;rounded=0;" vertex="1" parent="1">
          <mxGeometry x="222.5" y="370" width="120" height="20" as="geometry" />
        </mxCell>
        <mxCell id="63LmWP-ijqn6lB4bOJ2F-60" value="" style="endArrow=none;html=1;dashed=1;endFill=0;" edge="1" parent="1">
          <mxGeometry width="50" height="50" relative="1" as="geometry">
            <mxPoint x="340" y="369.99999999999983" as="sourcePoint" />
            <mxPoint x="200.0000000000001" y="370.1428687686011" as="targetPoint" />
          </mxGeometry>
        </mxCell>
        <mxCell id="63LmWP-ijqn6lB4bOJ2F-33" value="" style="endArrow=classic;html=1;dashed=1;" edge="1" parent="1">
          <mxGeometry width="50" height="50" relative="1" as="geometry">
            <mxPoint x="340" y="389.99999999999994" as="sourcePoint" />
            <mxPoint x="200.0000000000001" y="390.1428687686011" as="targetPoint" />
          </mxGeometry>
        </mxCell>
        <mxCell id="63LmWP-ijqn6lB4bOJ2F-64" value="Alt" style="rounded=0;whiteSpace=wrap;html=1;" vertex="1" parent="1">
          <mxGeometry x="200" y="320" width="30" height="15" as="geometry" />
        </mxCell>
      </root>
    </mxGraphModel>
  </diagram>
</mxfile>
